<svg
    xmlns="http://www.w3.org/2000/svg"
    viewBox="0 0 24 24"
    id="vector">
    <path
        id="path"
        d="M 20.286 3.429 C 22.337 3.429 24 5.092 24 7.143 L 24 20.286 C 24 22.337 22.337 24 20.286 24 L 7.143 24 C 5.092 24 3.429 22.337 3.429 20.286 L 3.429 13.145 C 3.971 13.371 4.545 13.535 5.143 13.627 L 5.143 20.286 C 5.143 20.524 5.184 20.752 5.261 20.964 L 11.915 14.449 C 12.867 13.517 14.363 13.473 15.367 14.316 L 15.513 14.449 L 22.167 20.965 C 22.244 20.753 22.286 20.524 22.286 20.286 L 22.286 7.143 C 22.286 6.038 21.39 5.143 20.286 5.143 L 13.627 5.143 C 13.535 4.545 13.371 3.971 13.145 3.429 L 20.286 3.429 Z M 13.21 15.593 L 13.115 15.674 L 6.478 22.173 C 6.686 22.246 6.91 22.286 7.143 22.286 L 20.286 22.286 C 20.518 22.286 20.742 22.246 20.949 22.173 L 14.314 15.674 C 14.011 15.377 13.543 15.35 13.21 15.593 Z M 17.431 7.429 C 18.853 7.429 20.005 8.581 20.005 10.002 C 20.005 11.424 18.853 12.576 17.431 12.576 C 16.01 12.576 14.857 11.424 14.857 10.002 C 14.857 8.581 16.01 7.429 17.431 7.429 Z M 6.286 0 C 9.757 0 12.571 2.814 12.571 6.286 C 12.571 9.757 9.757 12.571 6.286 12.571 C 2.814 12.571 0 9.757 0 6.286 C 0 2.814 2.814 0 6.286 0 Z M 17.431 9.143 C 16.956 9.143 16.571 9.528 16.571 10.002 C 16.571 10.477 16.956 10.862 17.431 10.862 C 17.906 10.862 18.291 10.477 18.291 10.002 C 18.291 9.528 17.906 9.143 17.431 9.143 Z M 6.286 2.285 L 6.183 2.294 C 5.95 2.336 5.766 2.52 5.723 2.754 L 5.714 2.856 L 5.714 5.713 L 2.854 5.714 L 2.752 5.723 C 2.518 5.766 2.335 5.95 2.292 6.183 L 2.283 6.286 L 2.292 6.388 C 2.335 6.622 2.518 6.806 2.752 6.848 L 2.854 6.857 L 5.715 6.856 L 5.716 9.718 L 5.725 9.821 C 5.767 10.054 5.951 10.238 6.184 10.281 L 6.287 10.29 L 6.39 10.281 C 6.623 10.238 6.807 10.054 6.849 9.821 L 6.858 9.718 L 6.858 6.856 L 9.719 6.857 L 9.822 6.848 C 10.056 6.806 10.239 6.622 10.282 6.388 L 10.291 6.286 L 10.282 6.183 C 10.239 5.95 10.056 5.766 9.822 5.723 L 9.719 5.714 L 6.857 5.713 L 6.857 2.856 L 6.848 2.754 C 6.806 2.52 6.622 2.336 6.388 2.294 L 6.286 2.285 Z"
        fill="#8a8a8d"/>
</svg>
