<svg
    xmlns="http://www.w3.org/2000/svg"
    viewBox="0 0 25 25"
    id="vector">
    <path
        id="path"
        d="M 0.906 12.899 C 0.906 6.271 6.279 0.899 12.906 0.899 C 19.534 0.899 24.906 6.271 24.906 12.899 C 24.906 19.526 19.534 24.899 12.906 24.899 C 10.719 24.899 8.666 24.313 6.899 23.289 L 2.223 24.847 C 1.871 24.965 1.483 24.878 1.215 24.621 C 0.947 24.365 0.843 23.981 0.945 23.624 L 2.368 18.643 C 1.436 16.936 0.906 14.978 0.906 12.899 Z M 12.906 2.899 C 7.383 2.899 2.906 7.376 2.906 12.899 C 2.906 14.765 3.417 16.509 4.305 18.002 C 4.445 18.239 4.482 18.523 4.407 18.788 L 3.389 22.351 L 6.705 21.245 C 6.99 21.15 7.303 21.188 7.557 21.349 C 9.103 22.33 10.937 22.899 12.906 22.899 C 18.429 22.899 22.906 18.421 22.906 12.899 C 22.906 7.376 18.429 2.899 12.906 2.899 Z"
        fill="#212121"/>
</svg>
