<svg
    xmlns="http://www.w3.org/2000/svg"
    viewBox="0 0 20 18"
    id="vector">
    <path
        id="path_1"
        d="M 10.82 1.58 L 10 2.402 L 9.176 1.578 C 8.168 0.57 6.801 0.004 5.375 0.004 C 3.95 0.004 2.583 0.57 1.575 1.578 C 0.567 2.587 0 3.954 0 5.379 C 0.001 6.805 0.567 8.172 1.575 9.18 L 9.47 17.075 C 9.611 17.215 9.801 17.294 10 17.294 C 10.199 17.294 10.389 17.215 10.53 17.075 L 18.432 9.178 C 19.439 8.17 20.004 6.803 20.004 5.378 C 20.004 3.953 19.438 2.587 18.431 1.579 C 17.931 1.079 17.338 0.682 16.685 0.412 C 16.032 0.141 15.332 0.002 14.626 0.002 C 13.919 0.002 13.219 0.141 12.566 0.412 C 11.913 0.682 11.32 1.08 10.82 1.58 Z"
        fill="#f44336"/>
</svg>
