<svg
    xmlns="http://www.w3.org/2000/svg"
    viewBox="0 0 24 20"
    id="vector">
    <path
        id="path"
        d="M 10.661 1.842 C 8.214 -0.604 4.256 -0.616 1.82 1.82 C -0.616 4.256 -0.604 8.214 1.842 10.661 L 10.899 19.718 C 11.275 20.094 11.884 20.094 12.26 19.718 L 21.27 10.713 C 23.701 8.269 23.693 4.322 21.246 1.875 C 18.795 -0.576 14.834 -0.588 12.394 1.852 L 11.533 2.715 L 10.661 1.842 Z M 19.906 9.357 L 11.58 17.677 L 3.203 9.301 C 1.506 7.603 1.497 4.863 3.18 3.18 C 4.863 1.497 7.603 1.506 9.301 3.203 L 10.858 4.76 C 11.24 5.142 11.862 5.135 12.234 4.743 L 13.754 3.213 C 15.442 1.526 18.184 1.534 19.885 3.235 C 21.583 4.933 21.588 7.665 19.906 9.357 Z"
        fill="#8a8a8d"/>
</svg>
