<svg
    xmlns="http://www.w3.org/2000/svg"
    viewBox="0 0 25 25"
    id="vector">
    <path
        id="path_1"
        d="M 9.092 7.507 C 9.092 5.85 10.435 4.507 12.092 4.507 C 13.749 4.507 15.092 5.85 15.092 7.507 C 15.092 9.163 13.749 10.507 12.092 10.507 C 10.435 10.507 9.092 9.163 9.092 7.507 Z"
        fill="#212121"/>
    <path
        id="path_2"
        d="M 8.342 12.007 L 15.842 12.007 C 17.084 12.007 18.092 13.014 18.092 14.257 C 18.092 15.931 17.403 17.272 16.274 18.179 C 15.162 19.071 13.671 19.507 12.092 19.507 C 10.512 19.507 9.022 19.071 7.91 18.179 C 6.78 17.272 6.092 15.931 6.092 14.257 C 6.092 13.014 7.099 12.007 8.342 12.007 Z"
        fill="#212121"/>
    <path
        id="path_3"
        d="M 12.092 0.007 C 5.464 0.007 0.092 5.379 0.092 12.007 C 0.092 18.634 5.464 24.007 12.092 24.007 C 18.719 24.007 24.092 18.634 24.092 12.007 C 24.092 5.379 18.719 0.007 12.092 0.007 Z M 1.592 12.007 C 1.592 6.208 6.293 1.507 12.092 1.507 C 17.891 1.507 22.592 6.208 22.592 12.007 C 22.592 17.806 17.891 22.507 12.092 22.507 C 6.293 22.507 1.592 17.806 1.592 12.007 Z"
        fill="#212121"/>
</svg>
