<svg
    xmlns="http://www.w3.org/2000/svg"
    viewBox="0 0 20 12"
    id="vector">
    <path
        id="path"
        d="M 1.947 7.312 C 1.772 7.835 1.207 8.118 0.684 7.943 C 0.16 7.769 -0.123 7.203 0.052 6.679 C 0.033 6.74 0.052 6.677 0.052 6.677 C 0.063 6.644 0.075 6.612 0.087 6.579 C 0.108 6.524 0.137 6.448 0.177 6.353 C 0.255 6.165 0.373 5.903 0.537 5.592 C 0.864 4.972 1.38 4.148 2.137 3.322 C 3.666 1.653 6.169 0 9.993 0 C 13.818 0 16.321 1.653 17.85 3.322 C 18.607 4.148 19.122 4.972 19.449 5.592 C 19.613 5.903 19.732 6.165 19.81 6.353 C 19.849 6.448 19.879 6.524 19.9 6.579 C 19.906 6.596 19.926 6.7 19.946 6.801 C 19.964 6.892 19.982 6.98 19.987 6.995 C 19.987 6.995 20.154 7.66 19.303 7.943 C 18.781 8.117 18.216 7.836 18.04 7.314 L 18.039 7.312 L 18.039 7.31 L 18.027 7.276 C 18.014 7.244 17.994 7.191 17.965 7.122 C 17.907 6.983 17.815 6.776 17.682 6.525 C 17.416 6.02 16.994 5.346 16.377 4.673 C 15.158 3.343 13.165 1.999 9.993 1.999 C 6.822 1.999 4.828 3.343 3.61 4.673 C 2.993 5.346 2.571 6.02 2.305 6.525 C 2.172 6.776 2.08 6.983 2.022 7.122 C 1.993 7.191 1.972 7.244 1.96 7.276 L 1.947 7.312 Z"
        fill="#8a8a8d"/>
    <path
        id="path_2"
        d="M 5.996 7.995 C 5.996 5.787 7.785 3.997 9.993 3.997 C 12.201 3.997 13.99 5.787 13.99 7.995 C 13.99 10.202 12.201 11.992 9.993 11.992 C 7.785 11.992 5.996 10.202 5.996 7.995 Z"
        fill="#8a8a8d"/>
</svg>
